<svg width="1875" height="800" viewBox="0 0 1875 800" fill="none" xmlns="http://www.w3.org/2000/svg">
<g clip-path="url(#clip0_45_2)">
<rect width="1875" height="800" fill="black"/>
<g clip-path="url(#clip1_45_2)">
<path fill-rule="evenodd" clip-rule="evenodd" d="M82.9221 580.776L182.484 581.907L230.074 664.336L184.471 756.567L82.139 757.023L31.3897 669.122L82.9221 580.776ZM60.5747 713.441L35.8817 670.672L75.3503 670.496L100.349 713.796L60.5747 713.441ZM62.3828 716.573L83.9331 753.899L123.402 753.723L102.157 716.927L62.3828 716.573ZM105.773 716.959L126.99 753.707L180.811 753.468L160.011 717.442L105.773 716.959ZM162.701 715.87L183.395 751.714L207.458 703.048L188.019 669.377L162.701 715.87ZM186.193 666.215L160.876 712.709L135.449 668.669L161.05 623.14L161.327 623.145L186.193 666.215ZM189.765 666.171L209.118 699.691L226.543 664.45L208.099 632.503L189.765 666.171ZM206.273 629.342L187.939 663.009L163.143 620.06L162.786 620.054L181.596 586.601L206.273 629.342ZM158.203 714.311L103.965 713.828L78.9384 670.48L132.759 670.24L158.203 714.311ZM79.4148 667.363L132.743 667.125L157.509 623.081L105.752 622.21L79.4148 667.363ZM107.552 619.124L159.245 619.994L178.932 584.982L127.806 584.401L107.552 619.124ZM124.223 584.361L103.981 619.064L64.5817 618.402L84.6996 583.912L124.223 584.361ZM62.7819 621.487L102.181 622.15L75.7988 667.379L35.9096 667.556L62.7819 621.487Z" fill="url(#paint0_linear_45_2)"/>
</g>
<g clip-path="url(#clip2_45_2)">
<path fill-rule="evenodd" clip-rule="evenodd" d="M1695.92 42.776L1795.48 43.9067L1843.07 126.336L1797.47 218.567L1695.14 219.023L1644.39 131.122L1695.92 42.776ZM1673.57 175.441L1648.88 132.672L1688.35 132.496L1713.35 175.796L1673.57 175.441ZM1675.38 178.573L1696.93 215.899L1736.4 215.723L1715.16 178.927L1675.38 178.573ZM1718.77 178.959L1739.99 215.707L1793.81 215.468L1773.01 179.442L1718.77 178.959ZM1775.7 177.87L1796.4 213.714L1820.46 165.048L1801.02 131.377L1775.7 177.87ZM1799.19 128.215L1773.88 174.709L1748.45 130.669L1774.05 85.1401L1774.33 85.1448L1799.19 128.215ZM1802.77 128.171L1822.12 161.691L1839.54 126.45L1821.1 94.5034L1802.77 128.171ZM1819.27 91.3416L1800.94 125.009L1776.14 82.0596L1775.79 82.0535L1794.6 48.6005L1819.27 91.3416ZM1771.2 176.311L1716.97 175.828L1691.94 132.48L1745.76 132.24L1771.2 176.311ZM1692.41 129.363L1745.74 129.125L1770.51 85.0806L1718.75 84.2099L1692.41 129.363ZM1720.55 81.1244L1772.25 81.994L1791.93 46.982L1740.81 46.4013L1720.55 81.1244ZM1737.22 46.3606L1716.98 81.0643L1677.58 80.4015L1697.7 45.9118L1737.22 46.3606ZM1675.78 83.487L1715.18 84.1498L1688.8 129.379L1648.91 129.556L1675.78 83.487Z" fill="url(#paint1_linear_45_2)"/>
</g>
<path d="M497.355 337.161L486.897 298.271H554.383L523.826 412H517.454L500.46 348.763L483.466 412H477.093L446.536 298.271H452.746L480.197 400.725L497.355 337.161ZM546.54 304.317H494.74L503.564 337.161L520.722 400.725L546.54 304.317ZM582.2 298.271H662.268V304.317H588.246V350.397H652.627V356.443H588.246V405.954H662.268V412H582.2V298.271ZM765.251 301.539C770.371 304.153 774.293 307.748 777.016 312.323C779.849 316.899 781.265 322.019 781.265 327.683C781.265 333.021 779.849 337.978 777.016 342.553C774.293 347.02 770.48 350.56 765.578 353.174C771.352 355.135 776.145 358.73 779.957 363.959C783.77 369.188 785.677 374.962 785.677 381.28C785.677 386.945 784.26 392.174 781.428 396.967C778.596 401.76 774.837 405.464 770.153 408.078C767.757 409.386 765.088 410.366 762.146 411.02C759.205 411.673 755.283 412 750.381 412H702.667V298.271H748.094C755.283 298.271 761.003 299.36 765.251 301.539ZM762.637 348.436C766.558 346.475 769.663 343.643 771.951 339.939C774.238 336.235 775.382 332.15 775.382 327.683C775.382 322.672 774.075 318.315 771.46 314.611C768.846 310.798 765.523 308.02 761.493 306.277C758.443 304.97 753.323 304.317 746.133 304.317H708.55V351.05H749.074C754.739 351.05 759.26 350.179 762.637 348.436ZM766.558 403.503C770.589 401.433 773.803 398.437 776.199 394.516C778.596 390.485 779.794 386.128 779.794 381.443C779.794 376.541 778.541 372.129 776.036 368.208C773.53 364.177 770.153 361.181 765.905 359.22C762.637 357.695 758.225 356.933 752.669 356.933H708.55V406.117H750.545C754.684 406.117 757.952 405.9 760.349 405.464C762.746 405.028 764.815 404.374 766.558 403.503ZM981.348 405.954V319.023C977.753 324.579 973.015 328.991 967.132 332.259C961.358 335.527 955.04 337.161 948.177 337.161V331.278C954.169 331.278 959.67 329.808 964.681 326.866C969.801 323.816 973.832 319.786 976.773 314.774C979.823 309.654 981.348 304.099 981.348 298.107H987.231V405.954H1021.55V412H947.033V405.954H981.348ZM1095.28 353.011L1130.57 304.643H1072.4V298.597H1138.09V304.643L1112.11 340.102C1117.88 341.191 1123.06 343.479 1127.63 346.965C1132.32 350.451 1135.97 354.809 1138.58 360.037C1141.3 365.266 1142.67 370.877 1142.67 376.868C1142.67 383.622 1140.98 389.886 1137.6 395.66C1134.22 401.433 1129.65 406.009 1123.87 409.386C1118.21 412.763 1112 414.451 1105.25 414.451C1098.49 414.451 1092.23 412.763 1086.46 409.386C1080.79 406.009 1076.27 401.433 1072.89 395.66C1069.52 389.886 1067.83 383.622 1067.83 376.868H1073.71C1073.71 382.533 1075.13 387.816 1077.96 392.718C1080.79 397.511 1084.6 401.324 1089.4 404.157C1094.3 406.989 1099.58 408.405 1105.25 408.405C1110.91 408.405 1116.14 406.989 1120.93 404.157C1125.84 401.324 1129.7 397.511 1132.54 392.718C1135.37 387.816 1136.78 382.533 1136.78 376.868C1136.78 371.53 1135.48 366.574 1132.86 361.998C1130.36 357.423 1126.87 353.665 1122.4 350.723C1118.05 347.782 1113.25 346.094 1108.02 345.658L1100.18 356.443L1095.28 353.011ZM1216.24 353.011L1251.53 304.643H1193.36V298.597H1259.05V304.643L1233.07 340.102C1238.84 341.191 1244.02 343.479 1248.59 346.965C1253.27 350.451 1256.92 354.809 1259.54 360.037C1262.26 365.266 1263.62 370.877 1263.62 376.868C1263.62 383.622 1261.94 389.886 1258.56 395.66C1255.18 401.433 1250.61 406.009 1244.83 409.386C1239.17 412.763 1232.96 414.451 1226.2 414.451C1219.45 414.451 1213.19 412.763 1207.41 409.386C1201.75 406.009 1197.23 401.433 1193.85 395.66C1190.47 389.886 1188.78 383.622 1188.78 376.868H1194.67C1194.67 382.533 1196.08 387.816 1198.92 392.718C1201.75 397.511 1205.56 401.324 1210.35 404.157C1215.26 406.989 1220.54 408.405 1226.2 408.405C1231.87 408.405 1237.1 406.989 1241.89 404.157C1246.79 401.324 1250.66 397.511 1253.49 392.718C1256.33 387.816 1257.74 382.533 1257.74 376.868C1257.74 371.53 1256.43 366.574 1253.82 361.998C1251.31 357.423 1247.83 353.665 1243.36 350.723C1239 347.782 1234.21 346.094 1228.98 345.658L1221.14 356.443L1216.24 353.011ZM1325.27 412L1378.05 304.153H1309.58V298.107H1384.74V304.153L1331.97 412H1325.27Z" fill="#3FF1E6"/>
<path d="M568.238 558L559.273 525.273H562.31L569.724 553.414H569.98L577.395 525.273H580.846L588.261 553.414H588.517L595.932 525.273H598.984L590.019 558H586.823L579.232 530.243H579.025L571.434 558H568.238ZM611.432 558.511C609.142 558.511 607.16 557.979 605.488 556.913C603.815 555.837 602.521 554.351 601.605 552.455C600.699 550.548 600.246 548.353 600.246 545.871C600.246 543.4 600.699 541.205 601.605 539.287C602.521 537.359 603.783 535.852 605.392 534.765C607.011 533.668 608.881 533.119 611.001 533.119C612.333 533.119 613.616 533.364 614.852 533.854C616.088 534.333 617.196 535.074 618.176 536.075C619.167 537.066 619.95 538.318 620.525 539.831C621.1 541.333 621.388 543.112 621.388 545.168V546.574H602.212V544.065H618.48C618.48 542.489 618.16 541.072 617.521 539.815C616.892 538.547 616.013 537.545 614.884 536.81C613.765 536.075 612.471 535.708 611.001 535.708C609.446 535.708 608.077 536.123 606.894 536.954C605.712 537.785 604.785 538.882 604.114 540.246C603.453 541.61 603.117 543.101 603.107 544.721V546.223C603.107 548.172 603.442 549.877 604.114 551.336C604.795 552.785 605.759 553.909 607.006 554.708C608.252 555.507 609.728 555.907 611.432 555.907C612.594 555.907 613.611 555.725 614.485 555.363C615.369 555.001 616.109 554.516 616.706 553.909C617.313 553.291 617.771 552.615 618.08 551.88L620.781 552.759C620.408 553.792 619.795 554.745 618.943 555.619C618.101 556.493 617.047 557.196 615.779 557.728C614.522 558.25 613.073 558.511 611.432 558.511ZM628.247 558V525.273H631.108V538.137H631.364C631.683 537.402 632.141 536.645 632.738 535.868C633.345 535.09 634.139 534.44 635.119 533.918C636.11 533.385 637.356 533.119 638.858 533.119C640.872 533.119 642.64 533.652 644.164 534.717C645.687 535.772 646.875 537.252 647.727 539.159C648.58 541.056 649.006 543.266 649.006 545.791C649.006 548.327 648.58 550.548 647.727 552.455C646.886 554.362 645.703 555.848 644.18 556.913C642.667 557.979 640.909 558.511 638.906 558.511C637.415 558.511 636.168 558.245 635.167 557.712C634.176 557.18 633.377 556.525 632.77 555.747C632.163 554.958 631.694 554.191 631.364 553.446H631.012V558H628.247ZM631.06 545.743C631.06 547.725 631.353 549.483 631.939 551.017C632.535 552.54 633.388 553.739 634.496 554.612C635.614 555.475 636.967 555.907 638.555 555.907C640.185 555.907 641.564 555.459 642.693 554.564C643.823 553.659 644.68 552.439 645.266 550.905C645.852 549.371 646.145 547.65 646.145 545.743C646.145 543.858 645.852 542.158 645.266 540.646C644.691 539.133 643.839 537.934 642.709 537.05C641.58 536.155 640.195 535.708 638.555 535.708C636.957 535.708 635.598 536.139 634.48 537.002C633.372 537.854 632.525 539.037 631.939 540.55C631.353 542.052 631.06 543.783 631.06 545.743ZM665.769 558.447C663.755 558.447 661.955 558.085 660.367 557.361C658.78 556.626 657.523 555.608 656.596 554.309C655.669 553.009 655.179 551.512 655.126 549.818H658.146C658.2 551.011 658.567 552.055 659.249 552.95C659.931 553.835 660.836 554.527 661.966 555.028C663.095 555.518 664.352 555.763 665.737 555.763C667.25 555.763 668.581 555.48 669.732 554.916C670.893 554.351 671.799 553.579 672.448 552.599C673.109 551.608 673.439 550.489 673.439 549.243C673.439 547.922 673.104 546.755 672.432 545.743C671.761 544.731 670.797 543.943 669.54 543.378C668.294 542.814 666.802 542.531 665.066 542.531H663.148V539.847H665.066C666.483 539.847 667.734 539.591 668.821 539.08C669.918 538.558 670.781 537.828 671.41 536.89C672.038 535.953 672.353 534.85 672.353 533.582C672.353 532.379 672.081 531.319 671.538 530.402C670.994 529.486 670.227 528.767 669.236 528.245C668.256 527.723 667.111 527.462 665.801 527.462C664.533 527.462 663.372 527.707 662.317 528.197C661.262 528.687 660.41 529.38 659.76 530.275C659.121 531.169 658.78 532.229 658.738 533.455H655.845C655.888 531.75 656.356 530.253 657.251 528.964C658.157 527.664 659.355 526.652 660.847 525.928C662.349 525.193 664.011 524.825 665.833 524.825C667.761 524.825 669.428 525.219 670.834 526.008C672.241 526.796 673.327 527.846 674.094 529.156C674.872 530.456 675.261 531.888 675.261 533.455C675.261 535.319 674.755 536.917 673.743 538.249C672.731 539.57 671.367 540.486 669.652 540.997V541.205C671.74 541.62 673.381 542.547 674.574 543.985C675.778 545.413 676.38 547.165 676.38 549.243C676.38 550.99 675.921 552.561 675.005 553.957C674.089 555.342 672.832 556.439 671.234 557.249C669.647 558.048 667.825 558.447 665.769 558.447ZM714.572 533.455C714.391 531.633 713.587 530.184 712.159 529.108C710.731 528.032 708.936 527.494 706.774 527.494C705.25 527.494 703.908 527.755 702.747 528.277C701.596 528.799 700.691 529.523 700.03 530.45C699.38 531.366 699.055 532.411 699.055 533.582C699.055 534.445 699.242 535.202 699.615 535.852C699.988 536.501 700.488 537.061 701.117 537.529C701.756 537.988 702.459 538.382 703.226 538.712C704.004 539.042 704.787 539.319 705.575 539.543L709.027 540.534C710.071 540.821 711.115 541.189 712.159 541.636C713.203 542.084 714.157 542.648 715.019 543.33C715.893 544.001 716.591 544.827 717.113 545.807C717.646 546.777 717.912 547.943 717.912 549.307C717.912 551.054 717.459 552.625 716.554 554.021C715.648 555.417 714.348 556.525 712.654 557.345C710.961 558.154 708.931 558.559 706.566 558.559C704.339 558.559 702.406 558.192 700.765 557.457C699.125 556.711 697.836 555.683 696.898 554.373C695.961 553.062 695.433 551.544 695.316 549.818H698.384C698.491 551.107 698.917 552.199 699.663 553.094C700.408 553.989 701.378 554.671 702.571 555.14C703.764 555.598 705.096 555.827 706.566 555.827C708.196 555.827 709.645 555.555 710.913 555.012C712.191 554.458 713.192 553.691 713.917 552.711C714.652 551.72 715.019 550.569 715.019 549.259C715.019 548.151 714.732 547.224 714.157 546.478C713.581 545.722 712.777 545.088 711.744 544.577C710.721 544.065 709.533 543.613 708.18 543.218L704.265 542.068C701.697 541.301 699.705 540.241 698.288 538.888C696.871 537.535 696.163 535.809 696.163 533.71C696.163 531.952 696.632 530.408 697.569 529.076C698.517 527.734 699.796 526.69 701.404 525.944C703.024 525.187 704.84 524.809 706.854 524.809C708.888 524.809 710.689 525.182 712.255 525.928C713.821 526.674 715.062 527.702 715.978 529.012C716.905 530.312 717.401 531.793 717.464 533.455H714.572ZM734.691 558H725.103V525.273H735.266C738.388 525.273 741.056 525.923 743.272 527.222C745.499 528.522 747.203 530.386 748.386 532.815C749.568 535.244 750.16 538.158 750.16 541.556C750.16 544.987 749.553 547.933 748.338 550.393C747.134 552.844 745.376 554.724 743.065 556.034C740.763 557.345 737.972 558 734.691 558ZM728.091 555.315H734.515C737.328 555.315 739.682 554.761 741.578 553.653C743.475 552.545 744.897 550.963 745.845 548.907C746.793 546.851 747.267 544.401 747.267 541.556C747.257 538.733 746.788 536.304 745.861 534.27C744.945 532.235 743.581 530.674 741.77 529.587C739.97 528.501 737.743 527.957 735.091 527.957H728.091V555.315ZM757.403 558V525.273H760.391V542.899H760.679L776.659 525.273H780.59L766.607 540.406L780.526 558H776.883L764.754 542.483L760.391 547.373V558H757.403ZM807.964 533.455V535.931H796.25V533.455H807.964ZM799.91 527.574H802.77V551.592C802.77 552.615 802.946 553.419 803.298 554.005C803.649 554.58 804.107 554.99 804.672 555.235C805.237 555.47 805.838 555.587 806.478 555.587C806.851 555.587 807.17 555.566 807.436 555.523C807.703 555.47 807.937 555.417 808.14 555.363L808.747 557.936C808.47 558.043 808.129 558.138 807.724 558.224C807.319 558.32 806.819 558.368 806.222 558.368C805.178 558.368 804.171 558.138 803.202 557.68C802.243 557.222 801.455 556.54 800.837 555.635C800.219 554.729 799.91 553.605 799.91 552.263V527.574ZM823.7 558.511C821.58 558.511 819.705 557.973 818.075 556.897C816.456 555.821 815.188 554.335 814.272 552.439C813.356 550.532 812.898 548.332 812.898 545.839C812.898 543.325 813.356 541.114 814.272 539.207C815.188 537.29 816.456 535.798 818.075 534.733C819.705 533.657 821.58 533.119 823.7 533.119C825.82 533.119 827.69 533.657 829.309 534.733C830.929 535.809 832.196 537.3 833.113 539.207C834.039 541.114 834.503 543.325 834.503 545.839C834.503 548.332 834.045 550.532 833.129 552.439C832.212 554.335 830.939 555.821 829.309 556.897C827.69 557.973 825.82 558.511 823.7 558.511ZM823.7 555.907C825.405 555.907 826.848 555.449 828.031 554.532C829.213 553.616 830.108 552.396 830.716 550.873C831.333 549.349 831.642 547.672 831.642 545.839C831.642 544.007 831.333 542.324 830.716 540.789C830.108 539.255 829.213 538.025 828.031 537.098C826.848 536.171 825.405 535.708 823.7 535.708C822.006 535.708 820.563 536.171 819.37 537.098C818.187 538.025 817.287 539.255 816.669 540.789C816.062 542.324 815.758 544.007 815.758 545.839C815.758 547.672 816.062 549.349 816.669 550.873C817.287 552.396 818.187 553.616 819.37 554.532C820.552 555.449 821.996 555.907 823.7 555.907ZM858.852 558L851.438 533.455H854.442L860.259 553.701H860.466L866.267 533.455H869.288L875.04 553.653H875.264L881.081 533.455H884.085L876.67 558H873.73L867.913 537.881H867.61L861.793 558H858.852ZM898.319 558.511C896.199 558.511 894.324 557.973 892.694 556.897C891.075 555.821 889.807 554.335 888.891 552.439C887.975 550.532 887.517 548.332 887.517 545.839C887.517 543.325 887.975 541.114 888.891 539.207C889.807 537.29 891.075 535.798 892.694 534.733C894.324 533.657 896.199 533.119 898.319 533.119C900.439 533.119 902.309 533.657 903.928 534.733C905.548 535.809 906.815 537.3 907.732 539.207C908.659 541.114 909.122 543.325 909.122 545.839C909.122 548.332 908.664 550.532 907.748 552.439C906.831 554.335 905.558 555.821 903.928 556.897C902.309 557.973 900.439 558.511 898.319 558.511ZM898.319 555.907C900.024 555.907 901.467 555.449 902.65 554.532C903.833 553.616 904.727 552.396 905.335 550.873C905.953 549.349 906.261 547.672 906.261 545.839C906.261 544.007 905.953 542.324 905.335 540.789C904.727 539.255 903.833 538.025 902.65 537.098C901.467 536.171 900.024 535.708 898.319 535.708C896.625 535.708 895.182 536.171 893.989 537.098C892.806 538.025 891.906 539.255 891.288 540.789C890.681 542.324 890.377 544.007 890.377 545.839C890.377 547.672 890.681 549.349 891.288 550.873C891.906 552.396 892.806 553.616 893.989 554.532C895.171 555.449 896.615 555.907 898.319 555.907ZM915.366 558V533.455H918.131V537.226H918.338C918.829 535.99 919.681 534.994 920.895 534.238C922.12 533.471 923.505 533.087 925.05 533.087C925.284 533.087 925.545 533.092 925.833 533.103C926.121 533.114 926.36 533.124 926.552 533.135V536.027C926.424 536.006 926.201 535.974 925.881 535.931C925.561 535.889 925.215 535.868 924.842 535.868C923.564 535.868 922.424 536.139 921.423 536.683C920.432 537.215 919.649 537.956 919.074 538.904C918.498 539.852 918.211 540.933 918.211 542.148V558H915.366ZM933.995 548.732L933.963 545.008H934.602L946.108 533.455H949.703L938.342 544.832L938.086 544.88L933.995 548.732ZM931.406 558V525.273H934.251V558H931.406ZM946.699 558L936.728 545.392L938.773 543.426L950.343 558H946.699ZM973.154 558L965.739 533.455H968.744L974.561 553.701H974.768L980.569 533.455H983.589L989.342 553.653H989.566L995.383 533.455H998.387L990.972 558H988.032L982.215 537.881H981.911L976.095 558H973.154ZM1003.95 558V533.455H1006.81V558H1003.95ZM1005.4 529.236C1004.82 529.236 1004.32 529.039 1003.9 528.645C1003.48 528.24 1003.28 527.755 1003.28 527.19C1003.28 526.626 1003.48 526.146 1003.9 525.752C1004.32 525.347 1004.82 525.145 1005.4 525.145C1005.99 525.145 1006.49 525.347 1006.9 525.752C1007.32 526.146 1007.53 526.626 1007.53 527.19C1007.53 527.755 1007.32 528.24 1006.9 528.645C1006.49 529.039 1005.99 529.236 1005.4 529.236ZM1024 533.455V535.931H1012.29V533.455H1024ZM1015.95 527.574H1018.81V551.592C1018.81 552.615 1018.98 553.419 1019.33 554.005C1019.68 554.58 1020.14 554.99 1020.71 555.235C1021.27 555.47 1021.87 555.587 1022.51 555.587C1022.89 555.587 1023.21 555.566 1023.47 555.523C1023.74 555.47 1023.97 555.417 1024.17 555.363L1024.78 557.936C1024.51 558.043 1024.16 558.138 1023.76 558.224C1023.35 558.32 1022.85 558.368 1022.26 558.368C1021.21 558.368 1020.21 558.138 1019.24 557.68C1018.28 557.222 1017.49 556.54 1016.87 555.635C1016.25 554.729 1015.95 553.605 1015.95 552.263V527.574ZM1033.83 542.659V558H1030.99V525.273H1033.83V537.306H1034.09C1034.66 536.038 1035.55 535.026 1036.76 534.27C1037.97 533.513 1039.5 533.135 1041.36 533.135C1043.02 533.135 1044.48 533.476 1045.74 534.158C1046.99 534.839 1047.97 535.846 1048.68 537.178C1049.38 538.51 1049.73 540.15 1049.73 542.1V558H1046.87V542.276C1046.87 540.251 1046.31 538.659 1045.18 537.498C1044.06 536.326 1042.55 535.74 1040.64 535.74C1039.33 535.74 1038.16 536.017 1037.14 536.571C1036.12 537.125 1035.31 537.924 1034.71 538.968C1034.12 540.001 1033.83 541.232 1033.83 542.659ZM1079.55 533.455V535.931H1067.83V533.455H1079.55ZM1071.49 527.574H1074.35V551.592C1074.35 552.615 1074.53 553.419 1074.88 554.005C1075.23 554.58 1075.69 554.99 1076.25 555.235C1076.82 555.47 1077.42 555.587 1078.06 555.587C1078.43 555.587 1078.75 555.566 1079.02 555.523C1079.28 555.47 1079.52 555.417 1079.72 555.363L1080.33 557.936C1080.05 558.043 1079.71 558.138 1079.31 558.224C1078.9 558.32 1078.4 558.368 1077.8 558.368C1076.76 558.368 1075.75 558.138 1074.78 557.68C1073.82 557.222 1073.04 556.54 1072.42 555.635C1071.8 554.729 1071.49 553.605 1071.49 552.263V527.574ZM1089.38 542.659V558H1086.53V525.273H1089.38V537.306H1089.63C1090.21 536.038 1091.1 535.026 1092.3 534.27C1093.52 533.513 1095.05 533.135 1096.9 533.135C1098.57 533.135 1100.03 533.476 1101.28 534.158C1102.54 534.839 1103.52 535.846 1104.22 537.178C1104.93 538.51 1105.28 540.15 1105.28 542.1V558H1102.42V542.276C1102.42 540.251 1101.85 538.659 1100.72 537.498C1099.6 536.326 1098.09 535.74 1096.19 535.74C1094.87 535.74 1093.71 536.017 1092.69 536.571C1091.66 537.125 1090.85 537.924 1090.26 538.968C1089.67 540.001 1089.38 541.232 1089.38 542.659ZM1122.69 558.511C1120.4 558.511 1118.42 557.979 1116.75 556.913C1115.07 555.837 1113.78 554.351 1112.86 552.455C1111.96 550.548 1111.51 548.353 1111.51 545.871C1111.51 543.4 1111.96 541.205 1112.86 539.287C1113.78 537.359 1115.04 535.852 1116.65 534.765C1118.27 533.668 1120.14 533.119 1122.26 533.119C1123.59 533.119 1124.88 533.364 1126.11 533.854C1127.35 534.333 1128.46 535.074 1129.44 536.075C1130.43 537.066 1131.21 538.318 1131.78 539.831C1132.36 541.333 1132.65 543.112 1132.65 545.168V546.574H1113.47V544.065H1129.74C1129.74 542.489 1129.42 541.072 1128.78 539.815C1128.15 538.547 1127.27 537.545 1126.14 536.81C1125.03 536.075 1123.73 535.708 1122.26 535.708C1120.71 535.708 1119.34 536.123 1118.15 536.954C1116.97 537.785 1116.04 538.882 1115.37 540.246C1114.71 541.61 1114.38 543.101 1114.37 544.721V546.223C1114.37 548.172 1114.7 549.877 1115.37 551.336C1116.06 552.785 1117.02 553.909 1118.27 554.708C1119.51 555.507 1120.99 555.907 1122.69 555.907C1123.85 555.907 1124.87 555.725 1125.74 555.363C1126.63 555.001 1127.37 554.516 1127.97 553.909C1128.57 553.291 1129.03 552.615 1129.34 551.88L1132.04 552.759C1131.67 553.792 1131.06 554.745 1130.2 555.619C1129.36 556.493 1128.31 557.196 1127.04 557.728C1125.78 558.25 1124.33 558.511 1122.69 558.511ZM1154.42 542.659V558H1151.57V533.455H1154.34V537.306H1154.59C1155.17 536.049 1156.06 535.042 1157.28 534.286C1158.5 533.518 1160.02 533.135 1161.82 533.135C1163.47 533.135 1164.92 533.481 1166.16 534.174C1167.42 534.855 1168.39 535.862 1169.09 537.194C1169.79 538.526 1170.14 540.161 1170.14 542.1V558H1167.3V542.276C1167.3 540.262 1166.73 538.669 1165.6 537.498C1164.48 536.326 1162.98 535.74 1161.1 535.74C1159.81 535.74 1158.66 536.017 1157.66 536.571C1156.66 537.125 1155.87 537.924 1155.28 538.968C1154.7 540.001 1154.42 541.232 1154.42 542.659ZM1187.56 558.511C1185.26 558.511 1183.28 557.979 1181.61 556.913C1179.94 555.837 1178.64 554.351 1177.73 552.455C1176.82 550.548 1176.37 548.353 1176.37 545.871C1176.37 543.4 1176.82 541.205 1177.73 539.287C1178.64 537.359 1179.91 535.852 1181.51 534.765C1183.13 533.668 1185 533.119 1187.12 533.119C1188.46 533.119 1189.74 533.364 1190.98 533.854C1192.21 534.333 1193.32 535.074 1194.3 536.075C1195.29 537.066 1196.07 538.318 1196.65 539.831C1197.22 541.333 1197.51 543.112 1197.51 545.168V546.574H1178.33V544.065H1194.6C1194.6 542.489 1194.28 541.072 1193.64 539.815C1193.02 538.547 1192.14 537.545 1191.01 536.81C1189.89 536.075 1188.59 535.708 1187.12 535.708C1185.57 535.708 1184.2 536.123 1183.02 536.954C1181.83 537.785 1180.91 538.882 1180.24 540.246C1179.58 541.61 1179.24 543.101 1179.23 544.721V546.223C1179.23 548.172 1179.57 549.877 1180.24 551.336C1180.92 552.785 1181.88 553.909 1183.13 554.708C1184.38 555.507 1185.85 555.907 1187.56 555.907C1188.72 555.907 1189.73 555.725 1190.61 555.363C1191.49 555.001 1192.23 554.516 1192.83 553.909C1193.44 553.291 1193.89 552.615 1194.2 551.88L1196.9 552.759C1196.53 553.792 1195.92 554.745 1195.07 555.619C1194.22 556.493 1193.17 557.196 1191.9 557.728C1190.64 558.25 1189.2 558.511 1187.56 558.511ZM1213.45 533.455V535.931H1201.73V533.455H1213.45ZM1205.39 527.574H1208.25V551.592C1208.25 552.615 1208.43 553.419 1208.78 554.005C1209.13 554.58 1209.59 554.99 1210.16 555.235C1210.72 555.47 1211.32 555.587 1211.96 555.587C1212.33 555.587 1212.65 555.566 1212.92 555.523C1213.19 555.47 1213.42 555.417 1213.62 555.363L1214.23 557.936C1213.95 558.043 1213.61 558.138 1213.21 558.224C1212.8 558.32 1212.3 558.368 1211.71 558.368C1210.66 558.368 1209.65 558.138 1208.69 557.68C1207.73 557.222 1206.94 556.54 1206.32 555.635C1205.7 554.729 1205.39 553.605 1205.39 552.263V527.574ZM1225.36 558L1217.94 533.455H1220.95L1226.76 553.701H1226.97L1232.77 533.455H1235.79L1241.54 553.653H1241.77L1247.58 533.455H1250.59L1243.17 558H1240.23L1234.42 537.881H1234.11L1228.3 558H1225.36ZM1264.82 558.511C1262.7 558.511 1260.83 557.973 1259.2 556.897C1257.58 555.821 1256.31 554.335 1255.4 552.439C1254.48 550.532 1254.02 548.332 1254.02 545.839C1254.02 543.325 1254.48 541.114 1255.4 539.207C1256.31 537.29 1257.58 535.798 1259.2 534.733C1260.83 533.657 1262.7 533.119 1264.82 533.119C1266.94 533.119 1268.81 533.657 1270.43 534.733C1272.05 535.809 1273.32 537.3 1274.24 539.207C1275.16 541.114 1275.63 543.325 1275.63 545.839C1275.63 548.332 1275.17 550.532 1274.25 552.439C1273.34 554.335 1272.06 555.821 1270.43 556.897C1268.81 557.973 1266.94 558.511 1264.82 558.511ZM1264.82 555.907C1266.53 555.907 1267.97 555.449 1269.15 554.532C1270.34 553.616 1271.23 552.396 1271.84 550.873C1272.46 549.349 1272.77 547.672 1272.77 545.839C1272.77 544.007 1272.46 542.324 1271.84 540.789C1271.23 539.255 1270.34 538.025 1269.15 537.098C1267.97 536.171 1266.53 535.708 1264.82 535.708C1263.13 535.708 1261.69 536.171 1260.49 537.098C1259.31 538.025 1258.41 539.255 1257.79 540.789C1257.18 542.324 1256.88 544.007 1256.88 545.839C1256.88 547.672 1257.18 549.349 1257.79 550.873C1258.41 552.396 1259.31 553.616 1260.49 554.532C1261.68 555.449 1263.12 555.907 1264.82 555.907ZM1281.87 558V533.455H1284.63V537.226H1284.84C1285.33 535.99 1286.18 534.994 1287.4 534.238C1288.62 533.471 1290.01 533.087 1291.55 533.087C1291.79 533.087 1292.05 533.092 1292.34 533.103C1292.62 533.114 1292.86 533.124 1293.06 533.135V536.027C1292.93 536.006 1292.7 535.974 1292.38 535.931C1292.07 535.889 1291.72 535.868 1291.35 535.868C1290.07 535.868 1288.93 536.139 1287.93 536.683C1286.94 537.215 1286.15 537.956 1285.58 538.904C1285 539.852 1284.71 540.933 1284.71 542.148V558H1281.87ZM1300.5 548.732L1300.47 545.008H1301.11L1312.61 533.455H1316.21L1304.85 544.832L1304.59 544.88L1300.5 548.732ZM1297.91 558V525.273H1300.75V558H1297.91ZM1313.2 558L1303.23 545.392L1305.28 543.426L1316.85 558H1313.2Z" fill="white"/>
<path d="M109.42 125.846L184.53 231H39.49V50.736H184.53L109.42 125.846ZM102.686 132.58L49.073 186.193V221.417H166.141L102.686 132.58Z" fill="white"/>
<path d="M212.256 89.7253V108.024L230.593 89.7253H232.613L221.308 100.992L232.574 116.765H230.865L220.298 102.002L212.256 110.044V116.765H210.818V89.7253H212.256ZM237.44 116.765V89.7253H238.877V115.327H257.72V116.765H237.44ZM261.109 89.7253L270.705 104.177L280.223 89.7253H281.932L271.404 105.693V116.765H269.966V105.693L259.399 89.7253H261.109ZM284.972 116.765V89.7253H286.487L305.368 108.062V89.7253H306.805V116.765H305.368V110.083L286.409 91.5901V116.765H284.972ZM331.329 89.7253V91.1627H321.111V116.765H319.713V91.1627H309.495V89.7253H331.329ZM344.547 89.7253H346.062L357.173 116.765H355.619L351.967 107.829H338.642L334.951 116.765H333.436L344.547 89.7253ZM339.224 106.431H351.384L345.285 91.5901L339.224 106.431ZM376.024 90.6188C377.578 91.344 378.796 92.4189 379.676 93.8434C380.583 95.2679 381.036 96.8478 381.036 98.5831C381.036 100.603 380.415 102.416 379.171 104.022C377.954 105.602 376.387 106.651 374.47 107.169L381.347 116.765H379.638L372.994 107.441L371.751 107.48H362V116.765H360.562V89.7253H370.857C371.997 89.7253 372.968 89.803 373.771 89.9584C374.6 90.0879 375.351 90.308 376.024 90.6188ZM372.139 106.042C373.486 106.042 374.729 105.706 375.869 105.032C377.009 104.359 377.915 103.452 378.589 102.313C379.262 101.173 379.599 99.9299 379.599 98.5831C379.599 97.0809 379.197 95.7211 378.394 94.5038C377.617 93.2865 376.53 92.38 375.131 91.7843C374.121 91.3699 372.696 91.1627 370.857 91.1627H362V106.042H372.139ZM211.945 147.725H232.108V149.163H213.383V160.507H228.534V161.944H213.383V174.765H211.945V147.725ZM245.793 147.143C247.813 147.143 249.678 147.648 251.387 148.658C253.096 149.642 254.443 150.989 255.427 152.698C256.437 154.407 256.943 156.272 256.943 158.292V164.198C256.943 166.218 256.437 168.083 255.427 169.792C254.443 171.501 253.096 172.861 251.387 173.871C249.678 174.856 247.813 175.348 245.793 175.348C243.772 175.348 241.908 174.856 240.198 173.871C238.489 172.861 237.129 171.501 236.119 169.792C235.135 168.083 234.643 166.218 234.643 164.198V158.292C234.643 156.272 235.135 154.407 236.119 152.698C237.129 150.989 238.489 149.642 240.198 148.658C241.908 147.648 243.772 147.143 245.793 147.143ZM236.08 164.198C236.08 165.959 236.507 167.591 237.362 169.093C238.243 170.569 239.421 171.748 240.897 172.628C242.4 173.483 244.031 173.91 245.793 173.91C247.554 173.91 249.173 173.483 250.649 172.628C252.151 171.748 253.329 170.569 254.184 169.093C255.065 167.591 255.505 165.959 255.505 164.198V158.292C255.505 156.531 255.065 154.913 254.184 153.436C253.329 151.934 252.151 150.756 250.649 149.901C249.173 149.02 247.554 148.58 245.793 148.58C244.031 148.58 242.4 149.02 240.897 149.901C239.421 150.756 238.243 151.934 237.362 153.436C236.507 154.913 236.08 156.531 236.08 158.292V164.198ZM259.749 147.725H261.186V164.431C261.186 166.14 261.614 167.72 262.468 169.17C263.323 170.621 264.476 171.773 265.926 172.628C267.376 173.483 268.956 173.91 270.666 173.91C272.375 173.91 273.955 173.483 275.405 172.628C276.856 171.773 278.008 170.621 278.863 169.17C279.718 167.72 280.145 166.14 280.145 164.431V147.725H281.583V164.431C281.583 166.399 281.09 168.225 280.106 169.909C279.122 171.566 277.788 172.887 276.105 173.871C274.447 174.856 272.634 175.348 270.666 175.348C268.697 175.348 266.871 174.856 265.188 173.871C263.53 172.887 262.209 171.566 261.225 169.909C260.241 168.225 259.749 166.399 259.749 164.431V147.725ZM284.972 174.765V147.725H286.487L305.368 166.062V147.725H306.805V174.765H305.368V168.083L286.409 149.59V174.765H284.972ZM320.14 147.725C322.108 147.725 323.921 148.217 325.579 149.202C327.262 150.186 328.596 151.52 329.58 153.203C330.565 154.861 331.057 156.674 331.057 158.642V163.848C331.057 165.816 330.565 167.642 329.58 169.326C328.596 170.983 327.262 172.304 325.579 173.289C323.921 174.273 322.108 174.765 320.14 174.765H310.155V147.725H320.14ZM329.619 158.642C329.619 156.933 329.192 155.353 328.337 153.902C327.483 152.452 326.317 151.299 324.841 150.445C323.39 149.59 321.81 149.163 320.101 149.163H311.593V173.327H320.101C321.81 173.327 323.39 172.9 324.841 172.045C326.317 171.191 327.483 170.038 328.337 168.588C329.192 167.137 329.619 165.557 329.619 163.848V158.642ZM344.547 147.725H346.062L357.173 174.765H355.619L351.967 165.829H338.642L334.951 174.765H333.436L344.547 147.725ZM339.224 164.431H351.384L345.285 149.59L339.224 164.431ZM381.075 147.725V149.163H370.857V174.765H369.459V149.163H359.241V147.725H381.075ZM403.811 147.725V149.163H395.731V173.327H403.811V174.765H386.29V173.327H394.332V149.163H386.29V147.725H403.811ZM419.904 147.143C421.925 147.143 423.789 147.648 425.499 148.658C427.208 149.642 428.555 150.989 429.539 152.698C430.549 154.407 431.054 156.272 431.054 158.292V164.198C431.054 166.218 430.549 168.083 429.539 169.792C428.555 171.501 427.208 172.861 425.499 173.871C423.789 174.856 421.925 175.348 419.904 175.348C417.884 175.348 416.019 174.856 414.31 173.871C412.601 172.861 411.241 171.501 410.231 169.792C409.246 168.083 408.754 166.218 408.754 164.198V158.292C408.754 156.272 409.246 154.407 410.231 152.698C411.241 150.989 412.601 149.642 414.31 148.658C416.019 147.648 417.884 147.143 419.904 147.143ZM410.192 164.198C410.192 165.959 410.619 167.591 411.474 169.093C412.354 170.569 413.533 171.748 415.009 172.628C416.511 173.483 418.143 173.91 419.904 173.91C421.666 173.91 423.284 173.483 424.761 172.628C426.263 171.748 427.441 170.569 428.296 169.093C429.177 167.591 429.617 165.959 429.617 164.198V158.292C429.617 156.531 429.177 154.913 428.296 153.436C427.441 151.934 426.263 150.756 424.761 149.901C423.284 149.02 421.666 148.58 419.904 148.58C418.143 148.58 416.511 149.02 415.009 149.901C413.533 150.756 412.354 151.934 411.474 153.436C410.619 154.913 410.192 156.531 410.192 158.292V164.198ZM434.21 174.765V147.725H435.725L454.606 166.062V147.725H456.044V174.765H454.606V168.083L435.648 149.59V174.765H434.21Z" fill="white"/>
<path fill-rule="evenodd" clip-rule="evenodd" d="M1830.48 606.88H1759.42V666.72H1830.48V606.88ZM1826.74 610.62H1763.16V662.98H1826.74V610.62Z" fill="url(#paint2_linear_45_2)"/>
<path fill-rule="evenodd" clip-rule="evenodd" d="M1837.96 599.4V689.16H1736.98V599.4H1837.96ZM1740.72 603.14H1834.22V685.42H1740.72V603.14Z" fill="url(#paint3_linear_45_2)"/>
<path fill-rule="evenodd" clip-rule="evenodd" d="M1845.44 591.92H1714.54V711.6H1845.44V591.92ZM1841.7 595.66H1718.28V707.86H1841.7V595.66Z" fill="url(#paint4_linear_45_2)"/>
<path fill-rule="evenodd" clip-rule="evenodd" d="M1852.92 584.44V734.04H1695.84V584.44H1852.92ZM1699.58 588.18H1849.18V730.3H1699.58V588.18Z" fill="url(#paint5_linear_45_2)"/>
<path fill-rule="evenodd" clip-rule="evenodd" d="M1860.4 576.96H1677.14V756.48H1860.4V576.96ZM1856.66 580.7H1680.88V752.74H1856.66V580.7Z" fill="url(#paint6_linear_45_2)"/>
<path fill-rule="evenodd" clip-rule="evenodd" d="M1867.88 569.48V778.92H1658.44V569.48H1867.88ZM1662.18 573.22H1864.14V775.18H1662.18V573.22Z" fill="url(#paint7_linear_45_2)"/>
<path fill-rule="evenodd" clip-rule="evenodd" d="M1875.36 562V801.36H1636V562H1875.36ZM1639.74 565.74H1871.62V797.62H1639.74V565.74Z" fill="url(#paint8_linear_45_2)"/>
<path d="M711.896 638.5L711.896 638.5C713.55 638.498 715.188 638.831 716.717 639.48C718.246 640.129 719.636 641.081 720.807 642.282C721.979 643.483 722.908 644.91 723.542 646.482C724.176 648.053 724.502 649.738 724.5 651.44V651.44V698.56V698.56C724.502 700.262 724.176 701.947 723.542 703.518C722.908 705.09 721.979 706.517 720.807 707.718C719.636 708.919 718.246 709.871 716.717 710.52C715.188 711.169 713.55 711.502 711.896 711.5H711.896H664.104H664.104C662.45 711.502 660.812 711.169 659.283 710.52C657.754 709.871 656.364 708.919 655.193 707.718C654.021 706.517 653.092 705.09 652.458 703.518C651.824 701.947 651.498 700.262 651.5 698.56V698.56L651.5 651.44L651.5 651.44C651.498 649.738 651.824 648.053 652.458 646.482C653.092 644.91 654.021 643.483 655.193 642.282C656.364 641.081 657.754 640.129 659.283 639.48C660.812 638.831 662.45 638.498 664.104 638.5L664.104 638V638.5L711.896 638.5Z" fill="#F7DF1E" stroke="#3FF1E6"/>
<path d="M700.835 695.902C702.325 698.336 704.265 700.125 707.695 700.125C710.576 700.125 712.416 698.685 712.416 696.695C712.416 694.31 710.525 693.466 707.354 692.079L705.616 691.333C700.598 689.195 697.264 686.517 697.264 680.855C697.264 675.64 701.238 671.67 707.448 671.67C711.869 671.67 715.048 673.209 717.338 677.238L711.923 680.714C710.731 678.577 709.445 677.734 707.448 677.734C705.411 677.734 704.12 679.026 704.12 680.714C704.12 682.8 705.412 683.645 708.396 684.937L710.134 685.682C716.042 688.215 719.378 690.798 719.378 696.606C719.378 702.866 714.46 706.296 707.855 706.296C701.398 706.296 697.225 703.219 695.184 699.185L700.835 695.902ZM676.27 696.505C677.363 698.443 678.356 700.081 680.746 700.081C683.03 700.081 684.471 699.187 684.471 695.712V672.067H691.425V695.806C691.425 703.006 687.204 706.283 681.042 706.283C675.474 706.283 672.25 703.402 670.61 699.931L676.27 696.505Z" fill="black"/>
<path d="M873.896 638.5L873.896 638.5C875.55 638.498 877.188 638.831 878.717 639.48C880.246 640.129 881.636 641.081 882.807 642.282C883.979 643.483 884.908 644.91 885.542 646.482C886.176 648.053 886.502 649.738 886.5 651.44V651.44V698.56V698.56C886.502 700.262 886.176 701.947 885.542 703.518C884.908 705.09 883.979 706.517 882.807 707.718C881.636 708.919 880.246 709.871 878.717 710.52C877.188 711.169 875.55 711.502 873.896 711.5H873.896H826.104H826.104C824.45 711.502 822.812 711.169 821.283 710.52C819.754 709.871 818.364 708.919 817.193 707.718C816.021 706.517 815.092 705.09 814.458 703.518C813.824 701.947 813.498 700.262 813.5 698.56V698.56L813.5 651.44L813.5 651.44C813.498 649.738 813.824 648.053 814.458 646.482C815.092 644.91 816.021 643.483 817.193 642.282C818.364 641.081 819.754 640.129 821.283 639.48C822.812 638.831 824.45 638.498 826.104 638.5L826.104 638V638.5L873.896 638.5Z" fill="#F0F0F0" stroke="#3FF1E6"/>
<path d="M849.836 702.75C849.092 702.75 848.354 702.555 847.703 702.18L840.913 698.16C839.899 697.593 840.394 697.393 840.728 697.277C842.08 696.804 842.355 696.697 843.798 695.877C843.95 695.791 844.148 695.821 844.304 695.913L849.519 699.008C849.708 699.11 849.975 699.11 850.15 699.008L870.487 687.269C870.675 687.162 870.797 686.943 870.797 686.719V663.251C870.797 663.017 870.675 662.808 870.483 662.691L850.154 650.962C849.965 650.85 849.716 650.85 849.528 650.962L829.203 662.691C829.006 662.803 828.88 663.022 828.88 663.246V686.714C828.88 686.938 829.003 687.152 829.196 687.259L834.765 690.476C837.789 691.988 839.637 690.206 839.637 688.414V665.252C839.637 664.921 839.897 664.666 840.227 664.666H842.803C843.124 664.666 843.389 664.921 843.389 665.252V688.424C843.389 692.456 841.19 694.772 837.366 694.772C836.191 694.772 835.264 694.772 832.678 693.5L827.343 690.425C826.025 689.661 825.21 688.236 825.21 686.714V663.246C825.21 661.719 826.025 660.294 827.343 659.54L847.701 647.796C848.988 647.068 850.699 647.068 851.977 647.796L872.309 659.545C873.622 660.304 874.442 661.724 874.442 663.251V686.719C874.442 688.241 873.622 689.661 872.309 690.425L851.977 702.169C851.325 702.546 850.587 702.739 849.833 702.739" fill="#689F63"/>
<path d="M856.117 686.579C847.219 686.579 845.353 682.494 845.353 679.068C845.353 678.742 845.616 678.483 845.942 678.483H848.569C848.859 678.483 849.103 678.694 849.149 678.981C849.546 681.657 850.727 683.007 856.108 683.007C860.395 683.007 862.217 682.039 862.217 679.766C862.217 678.458 861.698 677.486 855.039 676.834C849.47 676.284 846.029 675.057 846.029 670.603C846.029 666.5 849.49 664.056 855.289 664.056C861.8 664.056 865.027 666.317 865.434 671.173C865.45 671.341 865.388 671.504 865.276 671.626C865.164 671.743 865.007 671.815 864.844 671.815H862.202C861.927 671.815 861.688 671.621 861.632 671.356C860.995 668.541 859.458 667.64 855.278 667.64C850.6 667.64 850.055 669.269 850.055 670.491C850.055 671.972 850.697 672.405 857.009 673.24C863.261 674.07 866.228 675.241 866.228 679.634C866.228 684.063 862.533 686.603 856.088 686.603L856.117 686.579Z" fill="#689F63"/>
<path d="M1049 698.56V651.44C1049 649.675 1048.66 647.926 1048.01 646.295C1047.35 644.663 1046.38 643.181 1045.17 641.933C1043.95 640.684 1042.5 639.695 1040.91 639.02C1039.32 638.345 1037.62 637.998 1035.9 638L1049 698.56ZM1049 698.56C1049 700.325 1048.66 702.074 1048.01 703.705C1047.35 705.337 1046.38 706.819 1045.17 708.067C1043.95 709.316 1042.5 710.305 1040.91 710.98C1039.32 711.655 1037.62 712.002 1035.9 712H988.104M1049 698.56L988.104 712M988.104 712C986.383 712.002 984.678 711.655 983.088 710.98M988.104 712L983.088 710.98M983.088 710.98C981.497 710.305 980.052 709.316 978.835 708.067M983.088 710.98L978.835 708.067M978.835 708.067C977.617 706.819 976.652 705.337 975.994 703.705M978.835 708.067L975.994 703.705M975.994 703.705C975.336 702.074 974.998 700.325 975 698.56L975.994 703.705ZM988.104 638.5H988.104L1035.9 638.5L1035.9 638.5C1037.55 638.498 1039.19 638.831 1040.72 639.48C1042.25 640.129 1043.64 641.081 1044.81 642.282C1045.98 643.483 1046.91 644.91 1047.54 646.482C1048.18 648.053 1048.5 649.738 1048.5 651.44V651.44V698.56V698.56C1048.5 700.262 1048.18 701.947 1047.54 703.518C1046.91 705.09 1045.98 706.517 1044.81 707.718C1043.64 708.919 1042.25 709.871 1040.72 710.52C1039.19 711.169 1037.55 711.502 1035.9 711.5H1035.9H988.104H988.104C986.45 711.502 984.812 711.169 983.283 710.52C981.754 709.871 980.364 708.919 979.193 707.718C978.021 706.517 977.092 705.09 976.458 703.518C975.824 701.947 975.498 700.262 975.5 698.56V698.56L975.5 651.44L975.5 651.44C975.498 649.738 975.824 648.053 976.458 646.482C977.092 644.91 978.021 643.483 979.193 642.282C980.364 641.081 981.754 640.129 983.283 639.48C984.812 638.831 986.45 638.498 988.104 638.5Z" fill="#000B1D" stroke="#3FF1E6"/>
<path d="M986.106 670.391C985.988 670.391 985.959 670.332 986.018 670.243L986.638 669.446C986.697 669.358 986.845 669.298 986.963 669.298H997.505C997.623 669.298 997.652 669.387 997.593 669.476L997.091 670.243C997.032 670.332 996.885 670.421 996.796 670.421L986.106 670.391Z" fill="#2DBCAF"/>
<path d="M981.647 673.108C981.529 673.108 981.5 673.049 981.559 672.96L982.179 672.163C982.238 672.074 982.386 672.015 982.504 672.015H995.969C996.087 672.015 996.146 672.104 996.117 672.192L995.881 672.901C995.851 673.019 995.733 673.078 995.615 673.078L981.647 673.108Z" fill="#2DBCAF"/>
<path d="M988.794 675.825C988.675 675.825 988.646 675.736 988.705 675.647L989.118 674.909C989.177 674.821 989.296 674.732 989.414 674.732H995.32C995.438 674.732 995.497 674.821 995.497 674.939L995.438 675.647C995.438 675.765 995.32 675.854 995.231 675.854L988.794 675.825Z" fill="#2DBCAF"/>
<path d="M1019.45 669.859C1017.58 670.332 1016.32 670.686 1014.48 671.159C1014.04 671.277 1014.01 671.306 1013.63 670.863C1013.18 670.361 1012.86 670.037 1012.24 669.741C1010.38 668.826 1008.58 669.092 1006.9 670.184C1004.89 671.484 1003.85 673.403 1003.88 675.795C1003.91 678.157 1005.54 680.106 1007.87 680.431C1009.88 680.697 1011.56 679.988 1012.89 678.482C1013.16 678.157 1013.39 677.803 1013.69 677.389C1012.62 677.389 1011.3 677.389 1007.99 677.389C1007.37 677.389 1007.22 677.006 1007.43 676.504C1007.81 675.588 1008.52 674.053 1008.93 673.285C1009.02 673.108 1009.23 672.812 1009.67 672.812C1011.18 672.812 1016.73 672.812 1020.42 672.812C1020.36 673.61 1020.36 674.407 1020.24 675.204C1019.92 677.33 1019.12 679.279 1017.82 680.992C1015.69 683.797 1012.92 685.54 1009.41 686.012C1006.51 686.396 1003.82 685.835 1001.46 684.063C999.277 682.41 998.036 680.224 997.711 677.508C997.328 674.289 998.272 671.395 1000.22 668.855C1002.32 666.109 1005.09 664.367 1008.49 663.747C1011.27 663.245 1013.92 663.57 1016.32 665.194C1017.88 666.227 1019 667.645 1019.74 669.357C1019.92 669.623 1019.8 669.771 1019.45 669.859Z" fill="#2DBCAF"/>
<path d="M1029.22 686.189C1026.53 686.13 1024.08 685.362 1022.01 683.591C1020.27 682.085 1019.18 680.165 1018.83 677.891C1018.29 674.555 1019.21 671.602 1021.22 668.974C1023.37 666.139 1025.97 664.662 1029.49 664.042C1032.5 663.511 1035.33 663.806 1037.9 665.548C1040.23 667.143 1041.68 669.298 1042.06 672.133C1042.57 676.12 1041.42 679.368 1038.67 682.144C1036.72 684.122 1034.33 685.362 1031.58 685.924C1030.78 686.071 1029.99 686.101 1029.22 686.189ZM1036.25 674.259C1036.22 673.875 1036.22 673.58 1036.16 673.285C1035.63 670.361 1032.94 668.708 1030.13 669.357C1027.39 669.978 1025.62 671.72 1024.97 674.496C1024.44 676.799 1025.56 679.132 1027.68 680.077C1029.31 680.785 1030.93 680.697 1032.5 679.9C1034.83 678.689 1036.1 676.799 1036.25 674.259Z" fill="#2DBCAF"/>
<g clip-path="url(#clip3_45_2)">
<path d="M1197.9 638.5L1197.9 638.5C1199.55 638.498 1201.19 638.831 1202.72 639.48C1204.25 640.129 1205.64 641.081 1206.81 642.282C1207.98 643.483 1208.91 644.91 1209.54 646.482C1210.18 648.053 1210.5 649.738 1210.5 651.44V651.44V698.56V698.56C1210.5 700.262 1210.18 701.947 1209.54 703.518C1208.91 705.09 1207.98 706.517 1206.81 707.718C1205.64 708.919 1204.25 709.871 1202.72 710.52C1201.19 711.169 1199.55 711.502 1197.9 711.5H1197.9H1150.1H1150.1C1148.45 711.502 1146.81 711.169 1145.28 710.52C1143.75 709.871 1142.36 708.919 1141.19 707.718C1140.02 706.517 1139.09 705.09 1138.46 703.518C1137.82 701.947 1137.5 700.262 1137.5 698.56V698.56L1137.5 651.44L1137.5 651.44C1137.5 649.738 1137.82 648.053 1138.46 646.482C1139.09 644.91 1140.02 643.483 1141.19 642.282C1142.36 641.081 1143.75 640.129 1145.28 639.48C1146.81 638.831 1148.45 638.498 1150.1 638.5L1150.1 638V638.5L1197.9 638.5Z" fill="#000B1D" stroke="#3FF1E6"/>
<path d="M1173.9 650.21C1161.07 650.21 1161.87 655.772 1161.87 655.772L1161.88 661.535H1174.12V663.265H1157.02C1157.02 663.265 1148.81 662.334 1148.81 675.277C1148.81 688.219 1155.98 687.76 1155.98 687.76H1160.25V681.754C1160.25 681.754 1160.02 674.59 1167.3 674.59C1174.58 674.59 1179.44 674.59 1179.44 674.59C1179.44 674.59 1186.26 674.7 1186.26 667.998C1186.26 661.296 1186.26 656.916 1186.26 656.916C1186.26 656.916 1187.3 650.21 1173.9 650.21ZM1167.15 654.085C1168.36 654.085 1169.35 655.069 1169.35 656.287C1169.35 657.505 1168.36 658.489 1167.15 658.489C1165.93 658.489 1164.94 657.505 1164.94 656.287C1164.94 655.069 1165.93 654.085 1167.15 654.085Z" fill="url(#paint9_linear_45_2)"/>
<path d="M1174.26 700.473C1187.09 700.473 1186.29 694.911 1186.29 694.911L1186.27 689.148H1174.03V687.418H1191.13C1191.13 687.418 1199.34 688.349 1199.34 675.406C1199.34 662.464 1192.18 662.923 1192.18 662.923H1187.9V668.929C1187.9 668.929 1188.13 676.093 1180.85 676.093C1173.57 676.093 1168.71 676.093 1168.71 676.093C1168.71 676.093 1161.89 675.983 1161.89 682.685C1161.89 689.387 1161.89 693.767 1161.89 693.767C1161.89 693.767 1160.86 700.473 1174.26 700.473ZM1181.01 696.598C1179.79 696.598 1178.81 695.614 1178.81 694.396C1178.81 693.178 1179.79 692.194 1181.01 692.194C1182.23 692.194 1183.21 693.178 1183.21 694.396C1183.21 695.614 1182.23 696.598 1181.01 696.598Z" fill="url(#paint10_linear_45_2)"/>
</g>
</g>
<rect x="0.5" y="0.5" width="1874" height="799" stroke="white"/>
<defs>
<linearGradient id="paint0_linear_45_2" x1="185.15" y1="581.562" x2="83.9013" y2="762.252" gradientUnits="userSpaceOnUse">
<stop stop-color="#FF3131"/>
<stop offset="1" stop-color="#3FF1E6"/>
</linearGradient>
<linearGradient id="paint1_linear_45_2" x1="1798.15" y1="43.562" x2="1696.9" y2="224.252" gradientUnits="userSpaceOnUse">
<stop stop-color="#FF3131"/>
<stop offset="1" stop-color="#3FF1E6"/>
</linearGradient>
<linearGradient id="paint2_linear_45_2" x1="1871.62" y1="562" x2="1632.26" y2="806.97" gradientUnits="userSpaceOnUse">
<stop stop-color="white"/>
<stop offset="1" stop-color="white" stop-opacity="0"/>
</linearGradient>
<linearGradient id="paint3_linear_45_2" x1="1871.62" y1="562" x2="1632.26" y2="806.97" gradientUnits="userSpaceOnUse">
<stop stop-color="white"/>
<stop offset="1" stop-color="white" stop-opacity="0"/>
</linearGradient>
<linearGradient id="paint4_linear_45_2" x1="1871.62" y1="562" x2="1632.26" y2="806.97" gradientUnits="userSpaceOnUse">
<stop stop-color="white"/>
<stop offset="1" stop-color="white" stop-opacity="0"/>
</linearGradient>
<linearGradient id="paint5_linear_45_2" x1="1871.62" y1="562" x2="1632.26" y2="806.97" gradientUnits="userSpaceOnUse">
<stop stop-color="white"/>
<stop offset="1" stop-color="white" stop-opacity="0"/>
</linearGradient>
<linearGradient id="paint6_linear_45_2" x1="1871.62" y1="562" x2="1632.26" y2="806.97" gradientUnits="userSpaceOnUse">
<stop stop-color="white"/>
<stop offset="1" stop-color="white" stop-opacity="0"/>
</linearGradient>
<linearGradient id="paint7_linear_45_2" x1="1871.62" y1="562" x2="1632.26" y2="806.97" gradientUnits="userSpaceOnUse">
<stop stop-color="white"/>
<stop offset="1" stop-color="white" stop-opacity="0"/>
</linearGradient>
<linearGradient id="paint8_linear_45_2" x1="1871.62" y1="562" x2="1632.26" y2="806.97" gradientUnits="userSpaceOnUse">
<stop stop-color="white"/>
<stop offset="1" stop-color="white" stop-opacity="0"/>
</linearGradient>
<linearGradient id="paint9_linear_45_2" x1="1153.67" y1="654.603" x2="1178.65" y2="679.671" gradientUnits="userSpaceOnUse">
<stop stop-color="#387EB8"/>
<stop offset="1" stop-color="#366994"/>
</linearGradient>
<linearGradient id="paint10_linear_45_2" x1="1169.04" y1="670.55" x2="1195.87" y2="696.257" gradientUnits="userSpaceOnUse">
<stop stop-color="#FFE052"/>
<stop offset="1" stop-color="#FFC331"/>
</linearGradient>
<clipPath id="clip0_45_2">
<rect width="1875" height="800" fill="white"/>
</clipPath>
<clipPath id="clip1_45_2">
<rect width="261.8" height="261.8" fill="white" transform="matrix(-1 0 0 1 261.8 538)"/>
</clipPath>
<clipPath id="clip2_45_2">
<rect width="261.8" height="261.8" fill="white" transform="matrix(-1 0 0 1 1874.8 0)"/>
</clipPath>
<clipPath id="clip3_45_2">
<rect width="74" height="74" fill="white" transform="translate(1137 638)"/>
</clipPath>
</defs>
</svg>
